<?xml version="1.0" encoding="utf-8"?>
<svg version="1.1" xmlns:xlink="http://www.w3.org/1999/xlink" width="40px" height="40px" xmlns="http://www.w3.org/2000/svg">
  <defs>
    <pattern id="BGPattern" patternUnits="userSpaceOnUse" alignment="0 0" imageRepeat="None" />
    <mask fill="white" id="Clip34">
      <path d="M 34.6078431372549 31.05392156862745  C 35.06535947712418 30.59640522875817  35.294117647058826 30.049019607843135  35.294117647058826 29.411764705882355  C 35.294117647058826 28.75816993464052  35.06535947712418 28.202614379084963  34.6078431372549 27.745098039215684  L 29.50980392156863 22.647058823529413  C 29.05228758169935 22.189542483660134  28.496732026143793 21.96078431372549  27.84313725490196 21.96078431372549  C 27.15686274509804 21.96078431372549  26.56862745098039 22.22222222222222  26.07843137254902 22.745098039215684  C 26.127450980392158 22.794117647058822  26.282679738562095 22.9452614379085  26.544117647058822 23.198529411764707  C 26.805555555555557 23.451797385620914  26.9812091503268 23.627450980392158  27.07107843137255 23.725490196078432  C 27.160947712418306 23.823529411764707  27.283496732026148 23.97875816993464  27.438725490196077 24.191176470588232  C 27.593954248366014 24.403594771241828  27.700163398692812 24.611928104575163  27.75735294117647 24.816176470588232  C 27.814542483660137 25.020424836601304  27.84313725490196 25.245098039215684  27.84313725490196 25.49019607843137  C 27.84313725490196 26.1437908496732  27.614379084967325 26.699346405228756  27.15686274509804 27.15686274509804  C 26.69934640522876 27.614379084967318  26.143790849673202 27.84313725490196  25.49019607843137 27.84313725490196  C 25.245098039215684 27.84313725490196  25.020424836601308 27.814542483660134  24.816176470588232 27.757352941176467  C 24.611928104575167 27.70016339869281  24.40359477124183 27.59395424836601  24.191176470588232 27.43872549019608  C 23.978758169934643 27.283496732026144  23.82352941176471 27.160947712418295  23.725490196078432 27.07107843137255  C 23.62745098039216 26.98120915032679  23.451797385620917 26.805555555555554  23.198529411764707 26.544117647058822  C 22.9452614379085 26.28267973856209  22.794117647058822 26.127450980392158  22.745098039215684 26.07843137254902  C 22.205882352941178 26.584967320261434  21.936274509803923 27.181372549019606  21.936274509803923 27.867647058823533  C 21.936274509803923 28.521241830065357  22.165032679738562 29.076797385620914  22.622549019607842 29.534313725490193  L 27.67156862745098 34.6078431372549  C 28.112745098039213 35.049019607843135  28.66830065359477 35.26960784313725  29.338235294117645 35.26960784313725  C 29.991830065359476 35.26960784313725  30.547385620915037 35.05718954248366  31.004901960784316 34.63235294117647  L 34.6078431372549 31.05392156862745  Z M 17.254901960784316 13.92156862745098  C 17.794117647058822 13.415032679738559  18.063725490196077 12.81862745098039  18.063725490196077 12.132352941176471  C 18.063725490196077 11.47875816993464  17.834967320261438 10.923202614379083  17.377450980392158 10.465686274509803  L 12.32843137254902 5.392156862745097  C 11.870915032679738 4.934640522875817  11.315359477124183 4.7058823529411775  10.661764705882353 4.7058823529411775  C 10.024509803921568 4.7058823529411775  9.468954248366014 4.926470588235294  8.995098039215687 5.367647058823528  L 5.3921568627450975 8.946078431372548  C 4.934640522875817 9.403594771241828  4.705882352941177 9.950980392156863  4.705882352941177 10.588235294117645  C 4.705882352941177 11.241830065359473  4.934640522875817 11.79738562091503  5.3921568627450975 12.254901960784315  L 10.490196078431373 17.352941176470587  C 10.93137254901961 17.794117647058822  11.486928104575165 18.01470588235294  12.156862745098039 18.01470588235294  C 12.843137254901961 18.01470588235294  13.431372549019606 17.76143790849673  13.92156862745098 17.254901960784316  C 13.872549019607842 17.205882352941174  13.71732026143791 17.0547385620915  13.455882352941178 16.801470588235293  C 13.194444444444446 16.548202614379086  13.018790849673206 16.372549019607842  12.928921568627452 16.274509803921568  C 12.839052287581701 16.176470588235293  12.716503267973858 16.02124183006536  12.561274509803921 15.808823529411766  C 12.40604575163399 15.596405228758169  12.29983660130719 15.388071895424833  12.24264705882353 15.183823529411766  C 12.18545751633987 14.97957516339869  12.156862745098039 14.754901960784315  12.156862745098039 14.50980392156863  C 12.156862745098039 13.856209150326798  12.38562091503268 13.300653594771239  12.843137254901961 12.84313725490196  C 13.300653594771244 12.385620915032675  13.8562091503268 12.15686274509804  14.509803921568627 12.15686274509804  C 14.754901960784315 12.15686274509804  14.979575163398696 12.185457516339863  15.183823529411764 12.242647058823529  C 15.388071895424837 12.299836601307188  15.59640522875817 12.406045751633986  15.808823529411764 12.561274509803923  C 16.02124183006536 12.716503267973852  16.176470588235293 12.839052287581696  16.274509803921568 12.928921568627452  C 16.372549019607842 13.018790849673199  16.548202614379086 13.194444444444443  16.801470588235293 13.455882352941178  C 17.054738562091504 13.717320261437905  17.205882352941178 13.872549019607842  17.254901960784316 13.92156862745098  Z M 37.94117647058823 24.411764705882355  C 39.31372549019608 25.784313725490193  40 27.450980392156865  40 29.411764705882355  C 40 31.372549019607842  39.30555555555556 33.03104575163399  37.916666666666664 34.38725490196078  L 34.31372549019608 37.9656862745098  C 32.95751633986929 39.3218954248366  31.299019607843135 40  29.338235294117645 40  C 27.361111111111114 40  25.694444444444446 39.30555555555556  24.338235294117645 37.916666666666664  L 19.28921568627451 32.84313725490196  C 17.933006535947715 31.486928104575167  17.254901960784316 29.82843137254902  17.254901960784316 27.867647058823533  C 17.254901960784316 25.857843137254903  17.973856209150327 24.15032679738562  19.41176470588235 22.745098039215684  L 17.254901960784316 20.588235294117645  C 15.84967320261438 22.026143790849673  14.150326797385622 22.745098039215684  12.156862745098039 22.745098039215684  C 10.196078431372548 22.745098039215684  8.529411764705882 22.058823529411768  7.1568627450980395 20.68627450980392  L 2.0588235294117645 15.588235294117645  C 0.6862745098039216 14.215686274509803  0 12.549019607843137  0 10.588235294117645  C 0 8.627450980392158  0.6944444444444443 6.9689542483660105  2.0833333333333335 5.6127450980392135  L 5.686274509803921 2.0343137254901977  C 7.04248366013072 0.6781045751633963  8.700980392156863 0  10.661764705882353 0  C 12.638888888888891 0  14.305555555555557 0.694444444444442  15.661764705882353 2.083333333333335  L 20.71078431372549 7.15686274509804  C 22.06699346405229 8.513071895424833  22.745098039215684 10.17156862745098  22.745098039215684 12.132352941176471  C 22.745098039215684 14.142156862745097  22.026143790849673 15.849673202614376  20.588235294117645 17.254901960784316  L 22.745098039215684 19.411764705882355  C 24.150326797385624 17.973856209150327  25.84967320261438 17.25490196078431  27.84313725490196 17.254901960784316  C 29.80392156862745 17.25490196078431  31.470588235294116 17.941176470588232  32.84313725490196 19.313725490196077  L 37.94117647058823 24.411764705882355  Z " fill-rule="evenodd" />
    </mask>
  </defs>
  <g transform="matrix(1 0 0 1 -89 -50 )">
    <path d="M 34.6078431372549 31.05392156862745  C 35.06535947712418 30.59640522875817  35.294117647058826 30.049019607843135  35.294117647058826 29.411764705882355  C 35.294117647058826 28.75816993464052  35.06535947712418 28.202614379084963  34.6078431372549 27.745098039215684  L 29.50980392156863 22.647058823529413  C 29.05228758169935 22.189542483660134  28.496732026143793 21.96078431372549  27.84313725490196 21.96078431372549  C 27.15686274509804 21.96078431372549  26.56862745098039 22.22222222222222  26.07843137254902 22.745098039215684  C 26.127450980392158 22.794117647058822  26.282679738562095 22.9452614379085  26.544117647058822 23.198529411764707  C 26.805555555555557 23.451797385620914  26.9812091503268 23.627450980392158  27.07107843137255 23.725490196078432  C 27.160947712418306 23.823529411764707  27.283496732026148 23.97875816993464  27.438725490196077 24.191176470588232  C 27.593954248366014 24.403594771241828  27.700163398692812 24.611928104575163  27.75735294117647 24.816176470588232  C 27.814542483660137 25.020424836601304  27.84313725490196 25.245098039215684  27.84313725490196 25.49019607843137  C 27.84313725490196 26.1437908496732  27.614379084967325 26.699346405228756  27.15686274509804 27.15686274509804  C 26.69934640522876 27.614379084967318  26.143790849673202 27.84313725490196  25.49019607843137 27.84313725490196  C 25.245098039215684 27.84313725490196  25.020424836601308 27.814542483660134  24.816176470588232 27.757352941176467  C 24.611928104575167 27.70016339869281  24.40359477124183 27.59395424836601  24.191176470588232 27.43872549019608  C 23.978758169934643 27.283496732026144  23.82352941176471 27.160947712418295  23.725490196078432 27.07107843137255  C 23.62745098039216 26.98120915032679  23.451797385620917 26.805555555555554  23.198529411764707 26.544117647058822  C 22.9452614379085 26.28267973856209  22.794117647058822 26.127450980392158  22.745098039215684 26.07843137254902  C 22.205882352941178 26.584967320261434  21.936274509803923 27.181372549019606  21.936274509803923 27.867647058823533  C 21.936274509803923 28.521241830065357  22.165032679738562 29.076797385620914  22.622549019607842 29.534313725490193  L 27.67156862745098 34.6078431372549  C 28.112745098039213 35.049019607843135  28.66830065359477 35.26960784313725  29.338235294117645 35.26960784313725  C 29.991830065359476 35.26960784313725  30.547385620915037 35.05718954248366  31.004901960784316 34.63235294117647  L 34.6078431372549 31.05392156862745  Z M 17.254901960784316 13.92156862745098  C 17.794117647058822 13.415032679738559  18.063725490196077 12.81862745098039  18.063725490196077 12.132352941176471  C 18.063725490196077 11.47875816993464  17.834967320261438 10.923202614379083  17.377450980392158 10.465686274509803  L 12.32843137254902 5.392156862745097  C 11.870915032679738 4.934640522875817  11.315359477124183 4.7058823529411775  10.661764705882353 4.7058823529411775  C 10.024509803921568 4.7058823529411775  9.468954248366014 4.926470588235294  8.995098039215687 5.367647058823528  L 5.3921568627450975 8.946078431372548  C 4.934640522875817 9.403594771241828  4.705882352941177 9.950980392156863  4.705882352941177 10.588235294117645  C 4.705882352941177 11.241830065359473  4.934640522875817 11.79738562091503  5.3921568627450975 12.254901960784315  L 10.490196078431373 17.352941176470587  C 10.93137254901961 17.794117647058822  11.486928104575165 18.01470588235294  12.156862745098039 18.01470588235294  C 12.843137254901961 18.01470588235294  13.431372549019606 17.76143790849673  13.92156862745098 17.254901960784316  C 13.872549019607842 17.205882352941174  13.71732026143791 17.0547385620915  13.455882352941178 16.801470588235293  C 13.194444444444446 16.548202614379086  13.018790849673206 16.372549019607842  12.928921568627452 16.274509803921568  C 12.839052287581701 16.176470588235293  12.716503267973858 16.02124183006536  12.561274509803921 15.808823529411766  C 12.40604575163399 15.596405228758169  12.29983660130719 15.388071895424833  12.24264705882353 15.183823529411766  C 12.18545751633987 14.97957516339869  12.156862745098039 14.754901960784315  12.156862745098039 14.50980392156863  C 12.156862745098039 13.856209150326798  12.38562091503268 13.300653594771239  12.843137254901961 12.84313725490196  C 13.300653594771244 12.385620915032675  13.8562091503268 12.15686274509804  14.509803921568627 12.15686274509804  C 14.754901960784315 12.15686274509804  14.979575163398696 12.185457516339863  15.183823529411764 12.242647058823529  C 15.388071895424837 12.299836601307188  15.59640522875817 12.406045751633986  15.808823529411764 12.561274509803923  C 16.02124183006536 12.716503267973852  16.176470588235293 12.839052287581696  16.274509803921568 12.928921568627452  C 16.372549019607842 13.018790849673199  16.548202614379086 13.194444444444443  16.801470588235293 13.455882352941178  C 17.054738562091504 13.717320261437905  17.205882352941178 13.872549019607842  17.254901960784316 13.92156862745098  Z M 37.94117647058823 24.411764705882355  C 39.31372549019608 25.784313725490193  40 27.450980392156865  40 29.411764705882355  C 40 31.372549019607842  39.30555555555556 33.03104575163399  37.916666666666664 34.38725490196078  L 34.31372549019608 37.9656862745098  C 32.95751633986929 39.3218954248366  31.299019607843135 40  29.338235294117645 40  C 27.361111111111114 40  25.694444444444446 39.30555555555556  24.338235294117645 37.916666666666664  L 19.28921568627451 32.84313725490196  C 17.933006535947715 31.486928104575167  17.254901960784316 29.82843137254902  17.254901960784316 27.867647058823533  C 17.254901960784316 25.857843137254903  17.973856209150327 24.15032679738562  19.41176470588235 22.745098039215684  L 17.254901960784316 20.588235294117645  C 15.84967320261438 22.026143790849673  14.150326797385622 22.745098039215684  12.156862745098039 22.745098039215684  C 10.196078431372548 22.745098039215684  8.529411764705882 22.058823529411768  7.1568627450980395 20.68627450980392  L 2.0588235294117645 15.588235294117645  C 0.6862745098039216 14.215686274509803  0 12.549019607843137  0 10.588235294117645  C 0 8.627450980392158  0.6944444444444443 6.9689542483660105  2.0833333333333335 5.6127450980392135  L 5.686274509803921 2.0343137254901977  C 7.04248366013072 0.6781045751633963  8.700980392156863 0  10.661764705882353 0  C 12.638888888888891 0  14.305555555555557 0.694444444444442  15.661764705882353 2.083333333333335  L 20.71078431372549 7.15686274509804  C 22.06699346405229 8.513071895424833  22.745098039215684 10.17156862745098  22.745098039215684 12.132352941176471  C 22.745098039215684 14.142156862745097  22.026143790849673 15.849673202614376  20.588235294117645 17.254901960784316  L 22.745098039215684 19.411764705882355  C 24.150326797385624 17.973856209150327  25.84967320261438 17.25490196078431  27.84313725490196 17.254901960784316  C 29.80392156862745 17.25490196078431  31.470588235294116 17.941176470588232  32.84313725490196 19.313725490196077  L 37.94117647058823 24.411764705882355  Z " fill-rule="nonzero" fill="rgba(255, 255, 255, 1)" stroke="none" transform="matrix(1 0 0 1 89 50 )" class="fill" />
    <path d="M 34.6078431372549 31.05392156862745  C 35.06535947712418 30.59640522875817  35.294117647058826 30.049019607843135  35.294117647058826 29.411764705882355  C 35.294117647058826 28.75816993464052  35.06535947712418 28.202614379084963  34.6078431372549 27.745098039215684  L 29.50980392156863 22.647058823529413  C 29.05228758169935 22.189542483660134  28.496732026143793 21.96078431372549  27.84313725490196 21.96078431372549  C 27.15686274509804 21.96078431372549  26.56862745098039 22.22222222222222  26.07843137254902 22.745098039215684  C 26.127450980392158 22.794117647058822  26.282679738562095 22.9452614379085  26.544117647058822 23.198529411764707  C 26.805555555555557 23.451797385620914  26.9812091503268 23.627450980392158  27.07107843137255 23.725490196078432  C 27.160947712418306 23.823529411764707  27.283496732026148 23.97875816993464  27.438725490196077 24.191176470588232  C 27.593954248366014 24.403594771241828  27.700163398692812 24.611928104575163  27.75735294117647 24.816176470588232  C 27.814542483660137 25.020424836601304  27.84313725490196 25.245098039215684  27.84313725490196 25.49019607843137  C 27.84313725490196 26.1437908496732  27.614379084967325 26.699346405228756  27.15686274509804 27.15686274509804  C 26.69934640522876 27.614379084967318  26.143790849673202 27.84313725490196  25.49019607843137 27.84313725490196  C 25.245098039215684 27.84313725490196  25.020424836601308 27.814542483660134  24.816176470588232 27.757352941176467  C 24.611928104575167 27.70016339869281  24.40359477124183 27.59395424836601  24.191176470588232 27.43872549019608  C 23.978758169934643 27.283496732026144  23.82352941176471 27.160947712418295  23.725490196078432 27.07107843137255  C 23.62745098039216 26.98120915032679  23.451797385620917 26.805555555555554  23.198529411764707 26.544117647058822  C 22.9452614379085 26.28267973856209  22.794117647058822 26.127450980392158  22.745098039215684 26.07843137254902  C 22.205882352941178 26.584967320261434  21.936274509803923 27.181372549019606  21.936274509803923 27.867647058823533  C 21.936274509803923 28.521241830065357  22.165032679738562 29.076797385620914  22.622549019607842 29.534313725490193  L 27.67156862745098 34.6078431372549  C 28.112745098039213 35.049019607843135  28.66830065359477 35.26960784313725  29.338235294117645 35.26960784313725  C 29.991830065359476 35.26960784313725  30.547385620915037 35.05718954248366  31.004901960784316 34.63235294117647  L 34.6078431372549 31.05392156862745  Z " stroke-width="0" stroke-dasharray="0" stroke="rgba(255, 255, 255, 0)" fill="none" transform="matrix(1 0 0 1 89 50 )" class="stroke" mask="url(#Clip34)" />
    <path d="M 17.254901960784316 13.92156862745098  C 17.794117647058822 13.415032679738559  18.063725490196077 12.81862745098039  18.063725490196077 12.132352941176471  C 18.063725490196077 11.47875816993464  17.834967320261438 10.923202614379083  17.377450980392158 10.465686274509803  L 12.32843137254902 5.392156862745097  C 11.870915032679738 4.934640522875817  11.315359477124183 4.7058823529411775  10.661764705882353 4.7058823529411775  C 10.024509803921568 4.7058823529411775  9.468954248366014 4.926470588235294  8.995098039215687 5.367647058823528  L 5.3921568627450975 8.946078431372548  C 4.934640522875817 9.403594771241828  4.705882352941177 9.950980392156863  4.705882352941177 10.588235294117645  C 4.705882352941177 11.241830065359473  4.934640522875817 11.79738562091503  5.3921568627450975 12.254901960784315  L 10.490196078431373 17.352941176470587  C 10.93137254901961 17.794117647058822  11.486928104575165 18.01470588235294  12.156862745098039 18.01470588235294  C 12.843137254901961 18.01470588235294  13.431372549019606 17.76143790849673  13.92156862745098 17.254901960784316  C 13.872549019607842 17.205882352941174  13.71732026143791 17.0547385620915  13.455882352941178 16.801470588235293  C 13.194444444444446 16.548202614379086  13.018790849673206 16.372549019607842  12.928921568627452 16.274509803921568  C 12.839052287581701 16.176470588235293  12.716503267973858 16.02124183006536  12.561274509803921 15.808823529411766  C 12.40604575163399 15.596405228758169  12.29983660130719 15.388071895424833  12.24264705882353 15.183823529411766  C 12.18545751633987 14.97957516339869  12.156862745098039 14.754901960784315  12.156862745098039 14.50980392156863  C 12.156862745098039 13.856209150326798  12.38562091503268 13.300653594771239  12.843137254901961 12.84313725490196  C 13.300653594771244 12.385620915032675  13.8562091503268 12.15686274509804  14.509803921568627 12.15686274509804  C 14.754901960784315 12.15686274509804  14.979575163398696 12.185457516339863  15.183823529411764 12.242647058823529  C 15.388071895424837 12.299836601307188  15.59640522875817 12.406045751633986  15.808823529411764 12.561274509803923  C 16.02124183006536 12.716503267973852  16.176470588235293 12.839052287581696  16.274509803921568 12.928921568627452  C 16.372549019607842 13.018790849673199  16.548202614379086 13.194444444444443  16.801470588235293 13.455882352941178  C 17.054738562091504 13.717320261437905  17.205882352941178 13.872549019607842  17.254901960784316 13.92156862745098  Z " stroke-width="0" stroke-dasharray="0" stroke="rgba(255, 255, 255, 0)" fill="none" transform="matrix(1 0 0 1 89 50 )" class="stroke" mask="url(#Clip34)" />
    <path d="M 37.94117647058823 24.411764705882355  C 39.31372549019608 25.784313725490193  40 27.450980392156865  40 29.411764705882355  C 40 31.372549019607842  39.30555555555556 33.03104575163399  37.916666666666664 34.38725490196078  L 34.31372549019608 37.9656862745098  C 32.95751633986929 39.3218954248366  31.299019607843135 40  29.338235294117645 40  C 27.361111111111114 40  25.694444444444446 39.30555555555556  24.338235294117645 37.916666666666664  L 19.28921568627451 32.84313725490196  C 17.933006535947715 31.486928104575167  17.254901960784316 29.82843137254902  17.254901960784316 27.867647058823533  C 17.254901960784316 25.857843137254903  17.973856209150327 24.15032679738562  19.41176470588235 22.745098039215684  L 17.254901960784316 20.588235294117645  C 15.84967320261438 22.026143790849673  14.150326797385622 22.745098039215684  12.156862745098039 22.745098039215684  C 10.196078431372548 22.745098039215684  8.529411764705882 22.058823529411768  7.1568627450980395 20.68627450980392  L 2.0588235294117645 15.588235294117645  C 0.6862745098039216 14.215686274509803  0 12.549019607843137  0 10.588235294117645  C 0 8.627450980392158  0.6944444444444443 6.9689542483660105  2.0833333333333335 5.6127450980392135  L 5.686274509803921 2.0343137254901977  C 7.04248366013072 0.6781045751633963  8.700980392156863 0  10.661764705882353 0  C 12.638888888888891 0  14.305555555555557 0.694444444444442  15.661764705882353 2.083333333333335  L 20.71078431372549 7.15686274509804  C 22.06699346405229 8.513071895424833  22.745098039215684 10.17156862745098  22.745098039215684 12.132352941176471  C 22.745098039215684 14.142156862745097  22.026143790849673 15.849673202614376  20.588235294117645 17.254901960784316  L 22.745098039215684 19.411764705882355  C 24.150326797385624 17.973856209150327  25.84967320261438 17.25490196078431  27.84313725490196 17.254901960784316  C 29.80392156862745 17.25490196078431  31.470588235294116 17.941176470588232  32.84313725490196 19.313725490196077  L 37.94117647058823 24.411764705882355  Z " stroke-width="0" stroke-dasharray="0" stroke="rgba(255, 255, 255, 0)" fill="none" transform="matrix(1 0 0 1 89 50 )" class="stroke" mask="url(#Clip34)" />
  </g>
</svg>