<?xml version="1.0" encoding="utf-8"?>
<svg version="1.1" xmlns:xlink="http://www.w3.org/1999/xlink" width="32px" height="32px" xmlns="http://www.w3.org/2000/svg">
  <defs>
    <pattern id="BGPattern" patternUnits="userSpaceOnUse" alignment="0 0" imageRepeat="None" />
    <mask fill="white" id="Clip164">
      <path d="M 8.615384615384615 24  C 8.615384615384615 24.166666666666664  8.557692307692308 24.314102564102562  8.442307692307692 24.442307692307693  L 3.519230769230769 29.365384615384617  C 3.3782051282051286 29.48076923076923  3.230769230769231 29.53846153846154  3.076923076923077 29.53846153846154  C 2.923076923076923 29.53846153846154  2.775641025641026 29.48076923076923  2.6346153846153846 29.365384615384617  C 2.519230769230769 29.237179487179485  2.4615384615384617 29.08974358974359  2.4615384615384617 28.923076923076923  C 2.4615384615384617 28.756410256410255  2.519230769230769 28.60897435897436  2.6346153846153846 28.48076923076923  L 7.5576923076923075 23.557692307692307  C 7.685897435897436 23.442307692307693  7.833333333333334 23.384615384615387  8 23.384615384615387  C 8.166666666666668 23.384615384615387  8.314102564102566 23.442307692307693  8.442307692307692 23.557692307692307  C 8.557692307692308 23.68589743589743  8.615384615384615 23.833333333333332  8.615384615384615 24  Z M 11.51923076923077 24.78846153846154  C 11.634615384615385 24.903846153846153  11.692307692307692 25.05128205128205  11.692307692307692 25.23076923076923  L 11.692307692307692 31.384615384615383  C 11.692307692307692 31.564102564102562  11.634615384615385 31.71153846153846  11.51923076923077 31.826923076923077  C 11.403846153846153 31.942307692307693  11.256410256410257 32  11.076923076923077 32  C 10.8974358974359 32  10.75 31.942307692307693  10.634615384615385 31.826923076923077  C 10.51923076923077 31.71153846153846  10.461538461538462 31.564102564102562  10.461538461538462 31.384615384615383  L 10.461538461538462 25.23076923076923  C 10.461538461538462 25.05128205128205  10.51923076923077 24.903846153846153  10.634615384615385 24.78846153846154  C 10.75 24.673076923076923  10.8974358974359 24.615384615384613  11.076923076923077 24.615384615384613  C 11.256410256410257 24.615384615384613  11.403846153846153 24.673076923076923  11.51923076923077 24.78846153846154  Z M 7.211538461538462 20.48076923076923  C 7.326923076923077 20.596153846153847  7.384615384615385 20.74358974358974  7.384615384615385 20.923076923076923  C 7.384615384615385 21.102564102564102  7.326923076923077 21.25  7.211538461538462 21.365384615384613  C 7.096153846153846 21.48076923076923  6.94871794871795 21.53846153846154  6.769230769230769 21.53846153846154  L 0.6153846153846154 21.53846153846154  C 0.4358974358974359 21.53846153846154  0.2884615384615385 21.48076923076923  0.17307692307692307 21.365384615384613  C 0.057692307692307696 21.25  0 21.102564102564102  0 20.923076923076923  C 0 20.74358974358974  0.057692307692307696 20.596153846153847  0.17307692307692307 20.48076923076923  C 0.2884615384615385 20.365384615384613  0.4358974358974359 20.307692307692307  0.6153846153846154 20.307692307692307  L 6.769230769230769 20.307692307692307  C 6.94871794871795 20.307692307692307  7.096153846153846 20.365384615384613  7.211538461538462 20.48076923076923  Z M 30.076923076923077 19.46153846153846  C 31.153846153846153 20.564102564102562  31.692307692307693 21.87179487179487  31.692307692307693 23.384615384615387  C 31.692307692307693 24.923076923076923  31.147435897435898 26.224358974358978  30.057692307692307 27.28846153846154  L 27.23076923076923 30.096153846153847  C 26.166666666666668 31.16025641025641  24.865384615384617 31.692307692307693  23.326923076923077 31.692307692307693  C 21.77564102564103 31.692307692307693  20.467948717948723 31.147435897435898  19.403846153846153 30.057692307692307  L 12.98076923076923 23.615384615384613  C 12.711538461538462 23.346153846153847  12.442307692307692 22.987179487179485  12.173076923076923 22.53846153846154  L 16.76923076923077 22.192307692307693  L 22.01923076923077 27.46153846153846  C 22.365384615384617 27.807692307692307  22.80128205128205 27.98397435897436  23.326923076923077 27.990384615384613  C 23.852564102564106 27.99679487179487  24.28846153846154 27.826923076923077  24.634615384615383 27.48076923076923  L 27.46153846153846 24.673076923076923  C 27.82051282051282 24.314102564102562  28 23.884615384615387  28 23.384615384615387  C 28 22.87179487179487  27.82051282051282 22.43589743589743  27.46153846153846 22.076923076923077  L 22.192307692307693 16.78846153846154  L 22.53846153846154 12.192307692307693  C 22.98717948717949 12.46153846153846  23.346153846153847 12.73076923076923  23.615384615384617 13  L 30.076923076923077 19.46153846153846  Z M 19.01923076923077 8.384615384615383  C 19.28846153846154 8.653846153846153  19.557692307692307 9.012820512820511  19.826923076923077 9.46153846153846  L 15.23076923076923 9.807692307692307  L 9.98076923076923 4.53846153846154  C 9.621794871794872 4.179487179487179  9.185897435897436 4  8.673076923076923 4  C 8.173076923076923 4  7.737179487179488 4.173076923076923  7.365384615384615 4.51923076923077  L 4.538461538461538 7.326923076923077  C 4.17948717948718 7.685897435897434  4 8.115384615384617  4 8.615384615384617  C 4 9.128205128205124  4.17948717948718 9.564102564102562  4.538461538461538 9.923076923076923  L 9.807692307692308 15.192307692307693  L 9.461538461538462 19.807692307692307  C 9.012820512820513 19.53846153846154  8.653846153846153 19.26923076923077  8.384615384615385 19  L 1.9230769230769231 12.53846153846154  C 0.8461538461538461 11.435897435897434  0.3076923076923077 10.128205128205124  0.3076923076923077 8.615384615384617  C 0.3076923076923077 7.076923076923077  0.8525641025641024 5.7756410256410255  1.9423076923076923 4.71153846153846  L 4.769230769230769 1.9038461538461533  C 5.833333333333334 0.8397435897435876  7.134615384615385 0.3076923076923066  8.673076923076923 0.3076923076923066  C 10.224358974358976 0.3076923076923066  11.532051282051283 0.8525641025641022  12.596153846153847 1.9423076923076934  L 19.01923076923077 8.384615384615383  Z M 31.826923076923077 10.634615384615383  C 31.942307692307693 10.75  32 10.897435897435894  32 11.076923076923077  C 32 11.256410256410255  31.942307692307693 11.403846153846153  31.826923076923077 11.51923076923077  C 31.71153846153846 11.634615384615383  31.564102564102566 11.692307692307693  31.384615384615383 11.692307692307693  L 25.23076923076923 11.692307692307693  C 25.05128205128205 11.692307692307693  24.903846153846153 11.634615384615383  24.78846153846154 11.51923076923077  C 24.673076923076923 11.403846153846153  24.615384615384617 11.256410256410255  24.615384615384617 11.076923076923077  C 24.615384615384617 10.897435897435894  24.673076923076923 10.75  24.78846153846154 10.634615384615383  C 24.903846153846153 10.51923076923077  25.05128205128205 10.46153846153846  25.23076923076923 10.46153846153846  L 31.384615384615383 10.46153846153846  C 31.564102564102566 10.46153846153846  31.71153846153846 10.51923076923077  31.826923076923077 10.634615384615383  Z M 21.365384615384617 0.17307692307692335  C 21.48076923076923 0.2884615384615401  21.53846153846154 0.43589743589743435  21.53846153846154 0.6153846153846168  L 21.53846153846154 6.76923076923077  C 21.53846153846154 6.948717948717949  21.48076923076923 7.096153846153847  21.365384615384617 7.21153846153846  C 21.25 7.326923076923077  21.102564102564106 7.384615384615383  20.923076923076923 7.384615384615383  C 20.743589743589745 7.384615384615383  20.596153846153847 7.326923076923077  20.48076923076923 7.21153846153846  C 20.365384615384617 7.096153846153847  20.307692307692307 6.948717948717949  20.307692307692307 6.76923076923077  L 20.307692307692307 0.6153846153846168  C 20.307692307692307 0.43589743589743435  20.365384615384617 0.2884615384615401  20.48076923076923 0.17307692307692335  C 20.596153846153847 0.0576923076923066  20.743589743589745 0  20.923076923076923 0  C 21.102564102564106 0  21.25 0.0576923076923066  21.365384615384617 0.17307692307692335  Z M 29.53846153846154 3.0769230769230766  C 29.53846153846154 3.243589743589741  29.48076923076923 3.3910256410256387  29.365384615384617 3.51923076923077  L 24.442307692307693 8.442307692307693  C 24.30128205128205 8.557692307692307  24.153846153846153 8.615384615384617  24 8.615384615384617  C 23.846153846153847 8.615384615384617  23.698717948717952 8.557692307692307  23.557692307692307 8.442307692307693  C 23.442307692307693 8.314102564102562  23.384615384615383 8.166666666666664  23.384615384615383 8  C 23.384615384615383 7.833333333333332  23.442307692307693 7.685897435897434  23.557692307692307 7.557692307692307  L 28.48076923076923 2.6346153846153832  C 28.60897435897436 2.51923076923077  28.75641025641026 2.46153846153846  28.923076923076923 2.46153846153846  C 29.08974358974359 2.46153846153846  29.23717948717949 2.51923076923077  29.365384615384617 2.6346153846153832  C 29.48076923076923 2.762820512820511  29.53846153846154 2.910256410256409  29.53846153846154 3.0769230769230766  Z " fill-rule="evenodd" />
    </mask>
  </defs>
  <g transform="matrix(1 0 0 1 -95 -55 )">
    <path d="M 8.615384615384615 24  C 8.615384615384615 24.166666666666664  8.557692307692308 24.314102564102562  8.442307692307692 24.442307692307693  L 3.519230769230769 29.365384615384617  C 3.3782051282051286 29.48076923076923  3.230769230769231 29.53846153846154  3.076923076923077 29.53846153846154  C 2.923076923076923 29.53846153846154  2.775641025641026 29.48076923076923  2.6346153846153846 29.365384615384617  C 2.519230769230769 29.237179487179485  2.4615384615384617 29.08974358974359  2.4615384615384617 28.923076923076923  C 2.4615384615384617 28.756410256410255  2.519230769230769 28.60897435897436  2.6346153846153846 28.48076923076923  L 7.5576923076923075 23.557692307692307  C 7.685897435897436 23.442307692307693  7.833333333333334 23.384615384615387  8 23.384615384615387  C 8.166666666666668 23.384615384615387  8.314102564102566 23.442307692307693  8.442307692307692 23.557692307692307  C 8.557692307692308 23.68589743589743  8.615384615384615 23.833333333333332  8.615384615384615 24  Z M 11.51923076923077 24.78846153846154  C 11.634615384615385 24.903846153846153  11.692307692307692 25.05128205128205  11.692307692307692 25.23076923076923  L 11.692307692307692 31.384615384615383  C 11.692307692307692 31.564102564102562  11.634615384615385 31.71153846153846  11.51923076923077 31.826923076923077  C 11.403846153846153 31.942307692307693  11.256410256410257 32  11.076923076923077 32  C 10.8974358974359 32  10.75 31.942307692307693  10.634615384615385 31.826923076923077  C 10.51923076923077 31.71153846153846  10.461538461538462 31.564102564102562  10.461538461538462 31.384615384615383  L 10.461538461538462 25.23076923076923  C 10.461538461538462 25.05128205128205  10.51923076923077 24.903846153846153  10.634615384615385 24.78846153846154  C 10.75 24.673076923076923  10.8974358974359 24.615384615384613  11.076923076923077 24.615384615384613  C 11.256410256410257 24.615384615384613  11.403846153846153 24.673076923076923  11.51923076923077 24.78846153846154  Z M 7.211538461538462 20.48076923076923  C 7.326923076923077 20.596153846153847  7.384615384615385 20.74358974358974  7.384615384615385 20.923076923076923  C 7.384615384615385 21.102564102564102  7.326923076923077 21.25  7.211538461538462 21.365384615384613  C 7.096153846153846 21.48076923076923  6.94871794871795 21.53846153846154  6.769230769230769 21.53846153846154  L 0.6153846153846154 21.53846153846154  C 0.4358974358974359 21.53846153846154  0.2884615384615385 21.48076923076923  0.17307692307692307 21.365384615384613  C 0.057692307692307696 21.25  0 21.102564102564102  0 20.923076923076923  C 0 20.74358974358974  0.057692307692307696 20.596153846153847  0.17307692307692307 20.48076923076923  C 0.2884615384615385 20.365384615384613  0.4358974358974359 20.307692307692307  0.6153846153846154 20.307692307692307  L 6.769230769230769 20.307692307692307  C 6.94871794871795 20.307692307692307  7.096153846153846 20.365384615384613  7.211538461538462 20.48076923076923  Z M 30.076923076923077 19.46153846153846  C 31.153846153846153 20.564102564102562  31.692307692307693 21.87179487179487  31.692307692307693 23.384615384615387  C 31.692307692307693 24.923076923076923  31.147435897435898 26.224358974358978  30.057692307692307 27.28846153846154  L 27.23076923076923 30.096153846153847  C 26.166666666666668 31.16025641025641  24.865384615384617 31.692307692307693  23.326923076923077 31.692307692307693  C 21.77564102564103 31.692307692307693  20.467948717948723 31.147435897435898  19.403846153846153 30.057692307692307  L 12.98076923076923 23.615384615384613  C 12.711538461538462 23.346153846153847  12.442307692307692 22.987179487179485  12.173076923076923 22.53846153846154  L 16.76923076923077 22.192307692307693  L 22.01923076923077 27.46153846153846  C 22.365384615384617 27.807692307692307  22.80128205128205 27.98397435897436  23.326923076923077 27.990384615384613  C 23.852564102564106 27.99679487179487  24.28846153846154 27.826923076923077  24.634615384615383 27.48076923076923  L 27.46153846153846 24.673076923076923  C 27.82051282051282 24.314102564102562  28 23.884615384615387  28 23.384615384615387  C 28 22.87179487179487  27.82051282051282 22.43589743589743  27.46153846153846 22.076923076923077  L 22.192307692307693 16.78846153846154  L 22.53846153846154 12.192307692307693  C 22.98717948717949 12.46153846153846  23.346153846153847 12.73076923076923  23.615384615384617 13  L 30.076923076923077 19.46153846153846  Z M 19.01923076923077 8.384615384615383  C 19.28846153846154 8.653846153846153  19.557692307692307 9.012820512820511  19.826923076923077 9.46153846153846  L 15.23076923076923 9.807692307692307  L 9.98076923076923 4.53846153846154  C 9.621794871794872 4.179487179487179  9.185897435897436 4  8.673076923076923 4  C 8.173076923076923 4  7.737179487179488 4.173076923076923  7.365384615384615 4.51923076923077  L 4.538461538461538 7.326923076923077  C 4.17948717948718 7.685897435897434  4 8.115384615384617  4 8.615384615384617  C 4 9.128205128205124  4.17948717948718 9.564102564102562  4.538461538461538 9.923076923076923  L 9.807692307692308 15.192307692307693  L 9.461538461538462 19.807692307692307  C 9.012820512820513 19.53846153846154  8.653846153846153 19.26923076923077  8.384615384615385 19  L 1.9230769230769231 12.53846153846154  C 0.8461538461538461 11.435897435897434  0.3076923076923077 10.128205128205124  0.3076923076923077 8.615384615384617  C 0.3076923076923077 7.076923076923077  0.8525641025641024 5.7756410256410255  1.9423076923076923 4.71153846153846  L 4.769230769230769 1.9038461538461533  C 5.833333333333334 0.8397435897435876  7.134615384615385 0.3076923076923066  8.673076923076923 0.3076923076923066  C 10.224358974358976 0.3076923076923066  11.532051282051283 0.8525641025641022  12.596153846153847 1.9423076923076934  L 19.01923076923077 8.384615384615383  Z M 31.826923076923077 10.634615384615383  C 31.942307692307693 10.75  32 10.897435897435894  32 11.076923076923077  C 32 11.256410256410255  31.942307692307693 11.403846153846153  31.826923076923077 11.51923076923077  C 31.71153846153846 11.634615384615383  31.564102564102566 11.692307692307693  31.384615384615383 11.692307692307693  L 25.23076923076923 11.692307692307693  C 25.05128205128205 11.692307692307693  24.903846153846153 11.634615384615383  24.78846153846154 11.51923076923077  C 24.673076923076923 11.403846153846153  24.615384615384617 11.256410256410255  24.615384615384617 11.076923076923077  C 24.615384615384617 10.897435897435894  24.673076923076923 10.75  24.78846153846154 10.634615384615383  C 24.903846153846153 10.51923076923077  25.05128205128205 10.46153846153846  25.23076923076923 10.46153846153846  L 31.384615384615383 10.46153846153846  C 31.564102564102566 10.46153846153846  31.71153846153846 10.51923076923077  31.826923076923077 10.634615384615383  Z M 21.365384615384617 0.17307692307692335  C 21.48076923076923 0.2884615384615401  21.53846153846154 0.43589743589743435  21.53846153846154 0.6153846153846168  L 21.53846153846154 6.76923076923077  C 21.53846153846154 6.948717948717949  21.48076923076923 7.096153846153847  21.365384615384617 7.21153846153846  C 21.25 7.326923076923077  21.102564102564106 7.384615384615383  20.923076923076923 7.384615384615383  C 20.743589743589745 7.384615384615383  20.596153846153847 7.326923076923077  20.48076923076923 7.21153846153846  C 20.365384615384617 7.096153846153847  20.307692307692307 6.948717948717949  20.307692307692307 6.76923076923077  L 20.307692307692307 0.6153846153846168  C 20.307692307692307 0.43589743589743435  20.365384615384617 0.2884615384615401  20.48076923076923 0.17307692307692335  C 20.596153846153847 0.0576923076923066  20.743589743589745 0  20.923076923076923 0  C 21.102564102564106 0  21.25 0.0576923076923066  21.365384615384617 0.17307692307692335  Z M 29.53846153846154 3.0769230769230766  C 29.53846153846154 3.243589743589741  29.48076923076923 3.3910256410256387  29.365384615384617 3.51923076923077  L 24.442307692307693 8.442307692307693  C 24.30128205128205 8.557692307692307  24.153846153846153 8.615384615384617  24 8.615384615384617  C 23.846153846153847 8.615384615384617  23.698717948717952 8.557692307692307  23.557692307692307 8.442307692307693  C 23.442307692307693 8.314102564102562  23.384615384615383 8.166666666666664  23.384615384615383 8  C 23.384615384615383 7.833333333333332  23.442307692307693 7.685897435897434  23.557692307692307 7.557692307692307  L 28.48076923076923 2.6346153846153832  C 28.60897435897436 2.51923076923077  28.75641025641026 2.46153846153846  28.923076923076923 2.46153846153846  C 29.08974358974359 2.46153846153846  29.23717948717949 2.51923076923077  29.365384615384617 2.6346153846153832  C 29.48076923076923 2.762820512820511  29.53846153846154 2.910256410256409  29.53846153846154 3.0769230769230766  Z " fill-rule="nonzero" fill="rgba(0, 0, 0, 1)" stroke="none" transform="matrix(1 0 0 1 95 55 )" class="fill" />
    <path d="M 8.615384615384615 24  C 8.615384615384615 24.166666666666664  8.557692307692308 24.314102564102562  8.442307692307692 24.442307692307693  L 3.519230769230769 29.365384615384617  C 3.3782051282051286 29.48076923076923  3.230769230769231 29.53846153846154  3.076923076923077 29.53846153846154  C 2.923076923076923 29.53846153846154  2.775641025641026 29.48076923076923  2.6346153846153846 29.365384615384617  C 2.519230769230769 29.237179487179485  2.4615384615384617 29.08974358974359  2.4615384615384617 28.923076923076923  C 2.4615384615384617 28.756410256410255  2.519230769230769 28.60897435897436  2.6346153846153846 28.48076923076923  L 7.5576923076923075 23.557692307692307  C 7.685897435897436 23.442307692307693  7.833333333333334 23.384615384615387  8 23.384615384615387  C 8.166666666666668 23.384615384615387  8.314102564102566 23.442307692307693  8.442307692307692 23.557692307692307  C 8.557692307692308 23.68589743589743  8.615384615384615 23.833333333333332  8.615384615384615 24  Z " stroke-width="0" stroke-dasharray="0" stroke="rgba(255, 255, 255, 0)" fill="none" transform="matrix(1 0 0 1 95 55 )" class="stroke" mask="url(#Clip164)" />
    <path d="M 11.51923076923077 24.78846153846154  C 11.634615384615385 24.903846153846153  11.692307692307692 25.05128205128205  11.692307692307692 25.23076923076923  L 11.692307692307692 31.384615384615383  C 11.692307692307692 31.564102564102562  11.634615384615385 31.71153846153846  11.51923076923077 31.826923076923077  C 11.403846153846153 31.942307692307693  11.256410256410257 32  11.076923076923077 32  C 10.8974358974359 32  10.75 31.942307692307693  10.634615384615385 31.826923076923077  C 10.51923076923077 31.71153846153846  10.461538461538462 31.564102564102562  10.461538461538462 31.384615384615383  L 10.461538461538462 25.23076923076923  C 10.461538461538462 25.05128205128205  10.51923076923077 24.903846153846153  10.634615384615385 24.78846153846154  C 10.75 24.673076923076923  10.8974358974359 24.615384615384613  11.076923076923077 24.615384615384613  C 11.256410256410257 24.615384615384613  11.403846153846153 24.673076923076923  11.51923076923077 24.78846153846154  Z " stroke-width="0" stroke-dasharray="0" stroke="rgba(255, 255, 255, 0)" fill="none" transform="matrix(1 0 0 1 95 55 )" class="stroke" mask="url(#Clip164)" />
    <path d="M 7.211538461538462 20.48076923076923  C 7.326923076923077 20.596153846153847  7.384615384615385 20.74358974358974  7.384615384615385 20.923076923076923  C 7.384615384615385 21.102564102564102  7.326923076923077 21.25  7.211538461538462 21.365384615384613  C 7.096153846153846 21.48076923076923  6.94871794871795 21.53846153846154  6.769230769230769 21.53846153846154  L 0.6153846153846154 21.53846153846154  C 0.4358974358974359 21.53846153846154  0.2884615384615385 21.48076923076923  0.17307692307692307 21.365384615384613  C 0.057692307692307696 21.25  0 21.102564102564102  0 20.923076923076923  C 0 20.74358974358974  0.057692307692307696 20.596153846153847  0.17307692307692307 20.48076923076923  C 0.2884615384615385 20.365384615384613  0.4358974358974359 20.307692307692307  0.6153846153846154 20.307692307692307  L 6.769230769230769 20.307692307692307  C 6.94871794871795 20.307692307692307  7.096153846153846 20.365384615384613  7.211538461538462 20.48076923076923  Z " stroke-width="0" stroke-dasharray="0" stroke="rgba(255, 255, 255, 0)" fill="none" transform="matrix(1 0 0 1 95 55 )" class="stroke" mask="url(#Clip164)" />
    <path d="M 30.076923076923077 19.46153846153846  C 31.153846153846153 20.564102564102562  31.692307692307693 21.87179487179487  31.692307692307693 23.384615384615387  C 31.692307692307693 24.923076923076923  31.147435897435898 26.224358974358978  30.057692307692307 27.28846153846154  L 27.23076923076923 30.096153846153847  C 26.166666666666668 31.16025641025641  24.865384615384617 31.692307692307693  23.326923076923077 31.692307692307693  C 21.77564102564103 31.692307692307693  20.467948717948723 31.147435897435898  19.403846153846153 30.057692307692307  L 12.98076923076923 23.615384615384613  C 12.711538461538462 23.346153846153847  12.442307692307692 22.987179487179485  12.173076923076923 22.53846153846154  L 16.76923076923077 22.192307692307693  L 22.01923076923077 27.46153846153846  C 22.365384615384617 27.807692307692307  22.80128205128205 27.98397435897436  23.326923076923077 27.990384615384613  C 23.852564102564106 27.99679487179487  24.28846153846154 27.826923076923077  24.634615384615383 27.48076923076923  L 27.46153846153846 24.673076923076923  C 27.82051282051282 24.314102564102562  28 23.884615384615387  28 23.384615384615387  C 28 22.87179487179487  27.82051282051282 22.43589743589743  27.46153846153846 22.076923076923077  L 22.192307692307693 16.78846153846154  L 22.53846153846154 12.192307692307693  C 22.98717948717949 12.46153846153846  23.346153846153847 12.73076923076923  23.615384615384617 13  L 30.076923076923077 19.46153846153846  Z " stroke-width="0" stroke-dasharray="0" stroke="rgba(255, 255, 255, 0)" fill="none" transform="matrix(1 0 0 1 95 55 )" class="stroke" mask="url(#Clip164)" />
    <path d="M 19.01923076923077 8.384615384615383  C 19.28846153846154 8.653846153846153  19.557692307692307 9.012820512820511  19.826923076923077 9.46153846153846  L 15.23076923076923 9.807692307692307  L 9.98076923076923 4.53846153846154  C 9.621794871794872 4.179487179487179  9.185897435897436 4  8.673076923076923 4  C 8.173076923076923 4  7.737179487179488 4.173076923076923  7.365384615384615 4.51923076923077  L 4.538461538461538 7.326923076923077  C 4.17948717948718 7.685897435897434  4 8.115384615384617  4 8.615384615384617  C 4 9.128205128205124  4.17948717948718 9.564102564102562  4.538461538461538 9.923076923076923  L 9.807692307692308 15.192307692307693  L 9.461538461538462 19.807692307692307  C 9.012820512820513 19.53846153846154  8.653846153846153 19.26923076923077  8.384615384615385 19  L 1.9230769230769231 12.53846153846154  C 0.8461538461538461 11.435897435897434  0.3076923076923077 10.128205128205124  0.3076923076923077 8.615384615384617  C 0.3076923076923077 7.076923076923077  0.8525641025641024 5.7756410256410255  1.9423076923076923 4.71153846153846  L 4.769230769230769 1.9038461538461533  C 5.833333333333334 0.8397435897435876  7.134615384615385 0.3076923076923066  8.673076923076923 0.3076923076923066  C 10.224358974358976 0.3076923076923066  11.532051282051283 0.8525641025641022  12.596153846153847 1.9423076923076934  L 19.01923076923077 8.384615384615383  Z " stroke-width="0" stroke-dasharray="0" stroke="rgba(255, 255, 255, 0)" fill="none" transform="matrix(1 0 0 1 95 55 )" class="stroke" mask="url(#Clip164)" />
    <path d="M 31.826923076923077 10.634615384615383  C 31.942307692307693 10.75  32 10.897435897435894  32 11.076923076923077  C 32 11.256410256410255  31.942307692307693 11.403846153846153  31.826923076923077 11.51923076923077  C 31.71153846153846 11.634615384615383  31.564102564102566 11.692307692307693  31.384615384615383 11.692307692307693  L 25.23076923076923 11.692307692307693  C 25.05128205128205 11.692307692307693  24.903846153846153 11.634615384615383  24.78846153846154 11.51923076923077  C 24.673076923076923 11.403846153846153  24.615384615384617 11.256410256410255  24.615384615384617 11.076923076923077  C 24.615384615384617 10.897435897435894  24.673076923076923 10.75  24.78846153846154 10.634615384615383  C 24.903846153846153 10.51923076923077  25.05128205128205 10.46153846153846  25.23076923076923 10.46153846153846  L 31.384615384615383 10.46153846153846  C 31.564102564102566 10.46153846153846  31.71153846153846 10.51923076923077  31.826923076923077 10.634615384615383  Z " stroke-width="0" stroke-dasharray="0" stroke="rgba(255, 255, 255, 0)" fill="none" transform="matrix(1 0 0 1 95 55 )" class="stroke" mask="url(#Clip164)" />
    <path d="M 21.365384615384617 0.17307692307692335  C 21.48076923076923 0.2884615384615401  21.53846153846154 0.43589743589743435  21.53846153846154 0.6153846153846168  L 21.53846153846154 6.76923076923077  C 21.53846153846154 6.948717948717949  21.48076923076923 7.096153846153847  21.365384615384617 7.21153846153846  C 21.25 7.326923076923077  21.102564102564106 7.384615384615383  20.923076923076923 7.384615384615383  C 20.743589743589745 7.384615384615383  20.596153846153847 7.326923076923077  20.48076923076923 7.21153846153846  C 20.365384615384617 7.096153846153847  20.307692307692307 6.948717948717949  20.307692307692307 6.76923076923077  L 20.307692307692307 0.6153846153846168  C 20.307692307692307 0.43589743589743435  20.365384615384617 0.2884615384615401  20.48076923076923 0.17307692307692335  C 20.596153846153847 0.0576923076923066  20.743589743589745 0  20.923076923076923 0  C 21.102564102564106 0  21.25 0.0576923076923066  21.365384615384617 0.17307692307692335  Z " stroke-width="0" stroke-dasharray="0" stroke="rgba(255, 255, 255, 0)" fill="none" transform="matrix(1 0 0 1 95 55 )" class="stroke" mask="url(#Clip164)" />
    <path d="M 29.53846153846154 3.0769230769230766  C 29.53846153846154 3.243589743589741  29.48076923076923 3.3910256410256387  29.365384615384617 3.51923076923077  L 24.442307692307693 8.442307692307693  C 24.30128205128205 8.557692307692307  24.153846153846153 8.615384615384617  24 8.615384615384617  C 23.846153846153847 8.615384615384617  23.698717948717952 8.557692307692307  23.557692307692307 8.442307692307693  C 23.442307692307693 8.314102564102562  23.384615384615383 8.166666666666664  23.384615384615383 8  C 23.384615384615383 7.833333333333332  23.442307692307693 7.685897435897434  23.557692307692307 7.557692307692307  L 28.48076923076923 2.6346153846153832  C 28.60897435897436 2.51923076923077  28.75641025641026 2.46153846153846  28.923076923076923 2.46153846153846  C 29.08974358974359 2.46153846153846  29.23717948717949 2.51923076923077  29.365384615384617 2.6346153846153832  C 29.48076923076923 2.762820512820511  29.53846153846154 2.910256410256409  29.53846153846154 3.0769230769230766  Z " stroke-width="0" stroke-dasharray="0" stroke="rgba(255, 255, 255, 0)" fill="none" transform="matrix(1 0 0 1 95 55 )" class="stroke" mask="url(#Clip164)" />
  </g>
</svg>