<?xml version="1.0" encoding="utf-8"?>
<svg version="1.1" xmlns:xlink="http://www.w3.org/1999/xlink" width="242px" height="242px" xmlns="http://www.w3.org/2000/svg">
  <defs>
    <pattern id="BGPattern" patternUnits="userSpaceOnUse" alignment="0 0" imageRepeat="None" />
    <mask fill="white" id="Clip19">
      <path d="M 0 121  C 0 53.239999999999995  53.239999999999995 0  121 0  C 188.76000000000002 0  242 53.239999999999995  242 121  C 242 188.76000000000002  188.76000000000002 242  121 242  C 53.239999999999995 242  0 188.76000000000002  0 121  Z " fill-rule="evenodd" />
    </mask>
  </defs>
  <g>
    <path d="M 0 121  C 0 53.239999999999995  53.239999999999995 0  121 0  C 188.76000000000002 0  242 53.239999999999995  242 121  C 242 188.76000000000002  188.76000000000002 242  121 242  C 53.239999999999995 242  0 188.76000000000002  0 121  Z " fill-rule="nonzero" fill="rgba(255, 241, 0, 0.14901960784313725)" stroke="none" class="fill" />
    <path d="M 0 121  C 0 53.239999999999995  53.239999999999995 0  121 0  C 188.76000000000002 0  242 53.239999999999995  242 121  C 242 188.76000000000002  188.76000000000002 242  121 242  C 53.239999999999995 242  0 188.76000000000002  0 121  Z " stroke-width="0" stroke-dasharray="0" stroke="rgba(121, 121, 121, 1)" fill="none" class="stroke" mask="url(#Clip19)" />
  </g>
</svg>