<?xml version="1.0" encoding="utf-8"?>
<svg version="1.1" xmlns:xlink="http://www.w3.org/1999/xlink" width="48px" height="48px" xmlns="http://www.w3.org/2000/svg">
  <defs>
    <pattern id="BGPattern" patternUnits="userSpaceOnUse" alignment="0 0" imageRepeat="None" />
    <mask fill="white" id="Clip41">
      <path d="M 12.923076923076923 36  C 12.923076923076923 36.25  12.836538461538463 36.47115384615384  12.663461538461537 36.66346153846154  L 5.278846153846153 44.04807692307693  C 5.067307692307693 44.22115384615385  4.846153846153847 44.30769230769231  4.615384615384616 44.30769230769231  C 4.384615384615384 44.30769230769231  4.163461538461539 44.22115384615385  3.9519230769230766 44.04807692307693  C 3.7788461538461537 43.855769230769226  3.6923076923076925 43.63461538461539  3.6923076923076925 43.38461538461539  C 3.6923076923076925 43.13461538461539  3.7788461538461537 42.91346153846154  3.9519230769230766 42.72115384615385  L 11.336538461538462 35.33653846153846  C 11.528846153846153 35.16346153846154  11.75 35.07692307692308  12 35.07692307692308  C 12.250000000000002 35.07692307692308  12.471153846153848 35.16346153846154  12.663461538461537 35.33653846153846  C 12.836538461538463 35.528846153846146  12.923076923076923 35.75  12.923076923076923 36  Z M 17.278846153846153 37.18269230769231  C 17.451923076923077 37.355769230769226  17.538461538461537 37.57692307692308  17.538461538461537 37.84615384615385  L 17.538461538461537 47.07692307692307  C 17.538461538461537 47.34615384615384  17.451923076923077 47.56730769230769  17.278846153846153 47.74038461538461  C 17.10576923076923 47.91346153846154  16.884615384615387 48  16.615384615384613 48  C 16.34615384615385 48  16.125 47.91346153846154  15.951923076923077 47.74038461538461  C 15.778846153846155 47.56730769230769  15.692307692307693 47.34615384615384  15.692307692307693 47.07692307692307  L 15.692307692307693 37.84615384615385  C 15.692307692307693 37.57692307692308  15.778846153846155 37.355769230769226  15.951923076923077 37.18269230769231  C 16.125 37.00961538461539  16.34615384615385 36.92307692307692  16.615384615384613 36.92307692307692  C 16.884615384615387 36.92307692307692  17.10576923076923 37.00961538461539  17.278846153846153 37.18269230769231  Z M 10.817307692307693 30.721153846153847  C 10.990384615384615 30.89423076923077  11.076923076923077 31.115384615384613  11.076923076923077 31.384615384615387  C 11.076923076923077 31.653846153846153  10.990384615384615 31.875  10.817307692307693 32.04807692307692  C 10.644230769230768 32.22115384615385  10.423076923076925 32.30769230769231  10.153846153846153 32.30769230769231  L 0.9230769230769231 32.30769230769231  C 0.6538461538461539 32.30769230769231  0.4326923076923077 32.22115384615385  0.2596153846153846 32.04807692307692  C 0.08653846153846154 31.875  0 31.653846153846153  0 31.384615384615387  C 0 31.115384615384613  0.08653846153846154 30.89423076923077  0.2596153846153846 30.721153846153847  C 0.4326923076923077 30.54807692307692  0.6538461538461539 30.46153846153846  0.9230769230769231 30.46153846153846  L 10.153846153846153 30.46153846153846  C 10.423076923076925 30.46153846153846  10.644230769230768 30.54807692307692  10.817307692307693 30.721153846153847  Z M 45.11538461538461 29.19230769230769  C 46.730769230769226 30.846153846153843  47.53846153846154 32.80769230769231  47.53846153846154 35.07692307692308  C 47.53846153846154 37.38461538461539  46.72115384615385 39.33653846153847  45.08653846153846 40.93269230769231  L 40.84615384615385 45.144230769230774  C 39.25 46.74038461538461  37.29807692307693 47.53846153846154  34.99038461538461 47.53846153846154  C 32.66346153846155 47.53846153846154  30.701923076923084 46.72115384615385  29.10576923076923 45.08653846153846  L 19.471153846153847 35.42307692307692  C 19.067307692307693 35.019230769230774  18.663461538461537 34.480769230769226  18.259615384615387 33.80769230769231  L 25.153846153846153 33.28846153846154  L 33.02884615384615 41.19230769230769  C 33.54807692307693 41.71153846153846  34.20192307692308 41.97596153846154  34.99038461538461 41.98557692307692  C 35.77884615384616 41.99519230769231  36.43269230769231 41.74038461538461  36.95192307692307 41.22115384615385  L 41.19230769230769 37.00961538461539  C 41.73076923076923 36.47115384615384  42 35.82692307692308  42 35.07692307692308  C 42 34.30769230769231  41.73076923076923 33.653846153846146  41.19230769230769 33.11538461538461  L 33.28846153846154 25.18269230769231  L 33.80769230769231 18.28846153846154  C 34.48076923076923 18.69230769230769  35.019230769230774 19.096153846153847  35.42307692307693 19.5  L 45.11538461538461 29.19230769230769  Z M 28.528846153846153 12.576923076923075  C 28.93269230769231 12.98076923076923  29.33653846153846 13.519230769230766  29.740384615384613 14.19230769230769  L 22.846153846153847 14.71153846153846  L 14.971153846153845 6.80769230769231  C 14.432692307692308 6.269230769230768  13.778846153846153 6  13.009615384615385 6  C 12.259615384615385 6  11.605769230769232 6.259615384615385  11.048076923076923 6.778846153846155  L 6.8076923076923075 10.990384615384615  C 6.26923076923077 11.528846153846152  6 12.173076923076925  6 12.923076923076925  C 6 13.692307692307686  6.26923076923077 14.346153846153843  6.8076923076923075 14.884615384615385  L 14.711538461538463 22.78846153846154  L 14.192307692307693 29.71153846153846  C 13.51923076923077 29.30769230769231  12.98076923076923 28.903846153846153  12.576923076923077 28.5  L 2.8846153846153846 18.80769230769231  C 1.2692307692307692 17.153846153846153  0.46153846153846156 15.192307692307686  0.46153846153846156 12.923076923076925  C 0.46153846153846156 10.615384615384615  1.2788461538461537 8.663461538461538  2.9134615384615383 7.06730769230769  L 7.153846153846153 2.85576923076923  C 8.75 1.2596153846153815  10.701923076923077 0.4615384615384599  13.009615384615385 0.4615384615384599  C 15.336538461538463 0.4615384615384599  17.298076923076923 1.2788461538461533  18.89423076923077 2.91346153846154  L 28.528846153846153 12.576923076923075  Z M 47.74038461538461 15.951923076923075  C 47.91346153846154 16.125  48 16.34615384615384  48 16.615384615384613  C 48 16.884615384615383  47.91346153846154 17.10576923076923  47.74038461538461 17.278846153846153  C 47.56730769230769 17.451923076923073  47.34615384615385 17.53846153846154  47.07692307692307 17.53846153846154  L 37.84615384615385 17.53846153846154  C 37.57692307692308 17.53846153846154  37.355769230769226 17.451923076923073  37.18269230769231 17.278846153846153  C 37.00961538461539 17.10576923076923  36.92307692307693 16.884615384615383  36.92307692307693 16.615384615384613  C 36.92307692307693 16.34615384615384  37.00961538461539 16.125  37.18269230769231 15.951923076923075  C 37.355769230769226 15.778846153846155  37.57692307692308 15.69230769230769  37.84615384615385 15.69230769230769  L 47.07692307692307 15.69230769230769  C 47.34615384615385 15.69230769230769  47.56730769230769 15.778846153846155  47.74038461538461 15.951923076923075  Z M 32.04807692307693 0.259615384615385  C 32.22115384615385 0.43269230769231015  32.30769230769231 0.6538461538461515  32.30769230769231 0.9230769230769251  L 32.30769230769231 10.153846153846155  C 32.30769230769231 10.423076923076923  32.22115384615385 10.64423076923077  32.04807692307693 10.81730769230769  C 31.875 10.990384615384615  31.65384615384616 11.076923076923075  31.384615384615387 11.076923076923075  C 31.115384615384617 11.076923076923075  30.89423076923077 10.990384615384615  30.721153846153847 10.81730769230769  C 30.548076923076927 10.64423076923077  30.46153846153846 10.423076923076923  30.46153846153846 10.153846153846155  L 30.46153846153846 0.9230769230769251  C 30.46153846153846 0.6538461538461515  30.548076923076927 0.43269230769231015  30.721153846153847 0.259615384615385  C 30.89423076923077 0.0865384615384599  31.115384615384617 0  31.384615384615387 0  C 31.65384615384616 0  31.875 0.0865384615384599  32.04807692307693 0.259615384615385  Z M 44.30769230769231 4.615384615384615  C 44.30769230769231 4.865384615384611  44.22115384615385 5.086538461538458  44.04807692307693 5.278846153846155  L 36.66346153846154 12.66346153846154  C 36.45192307692308 12.83653846153846  36.230769230769226 12.923076923076925  36 12.923076923076925  C 35.769230769230774 12.923076923076925  35.54807692307693 12.83653846153846  35.33653846153846 12.66346153846154  C 35.16346153846154 12.471153846153843  35.07692307692307 12.249999999999996  35.07692307692307 12  C 35.07692307692307 11.749999999999998  35.16346153846154 11.528846153846152  35.33653846153846 11.33653846153846  L 42.72115384615385 3.951923076923075  C 42.91346153846154 3.778846153846155  43.13461538461539 3.69230769230769  43.38461538461539 3.69230769230769  C 43.63461538461539 3.69230769230769  43.85576923076923 3.778846153846155  44.04807692307693 3.951923076923075  C 44.22115384615385 4.1442307692307665  44.30769230769231 4.365384615384613  44.30769230769231 4.615384615384615  Z " fill-rule="evenodd" />
    </mask>
  </defs>
  <g transform="matrix(1 0 0 1 -128 -97 )">
    <path d="M 12.923076923076923 36  C 12.923076923076923 36.25  12.836538461538463 36.47115384615384  12.663461538461537 36.66346153846154  L 5.278846153846153 44.04807692307693  C 5.067307692307693 44.22115384615385  4.846153846153847 44.30769230769231  4.615384615384616 44.30769230769231  C 4.384615384615384 44.30769230769231  4.163461538461539 44.22115384615385  3.9519230769230766 44.04807692307693  C 3.7788461538461537 43.855769230769226  3.6923076923076925 43.63461538461539  3.6923076923076925 43.38461538461539  C 3.6923076923076925 43.13461538461539  3.7788461538461537 42.91346153846154  3.9519230769230766 42.72115384615385  L 11.336538461538462 35.33653846153846  C 11.528846153846153 35.16346153846154  11.75 35.07692307692308  12 35.07692307692308  C 12.250000000000002 35.07692307692308  12.471153846153848 35.16346153846154  12.663461538461537 35.33653846153846  C 12.836538461538463 35.528846153846146  12.923076923076923 35.75  12.923076923076923 36  Z M 17.278846153846153 37.18269230769231  C 17.451923076923077 37.355769230769226  17.538461538461537 37.57692307692308  17.538461538461537 37.84615384615385  L 17.538461538461537 47.07692307692307  C 17.538461538461537 47.34615384615384  17.451923076923077 47.56730769230769  17.278846153846153 47.74038461538461  C 17.10576923076923 47.91346153846154  16.884615384615387 48  16.615384615384613 48  C 16.34615384615385 48  16.125 47.91346153846154  15.951923076923077 47.74038461538461  C 15.778846153846155 47.56730769230769  15.692307692307693 47.34615384615384  15.692307692307693 47.07692307692307  L 15.692307692307693 37.84615384615385  C 15.692307692307693 37.57692307692308  15.778846153846155 37.355769230769226  15.951923076923077 37.18269230769231  C 16.125 37.00961538461539  16.34615384615385 36.92307692307692  16.615384615384613 36.92307692307692  C 16.884615384615387 36.92307692307692  17.10576923076923 37.00961538461539  17.278846153846153 37.18269230769231  Z M 10.817307692307693 30.721153846153847  C 10.990384615384615 30.89423076923077  11.076923076923077 31.115384615384613  11.076923076923077 31.384615384615387  C 11.076923076923077 31.653846153846153  10.990384615384615 31.875  10.817307692307693 32.04807692307692  C 10.644230769230768 32.22115384615385  10.423076923076925 32.30769230769231  10.153846153846153 32.30769230769231  L 0.9230769230769231 32.30769230769231  C 0.6538461538461539 32.30769230769231  0.4326923076923077 32.22115384615385  0.2596153846153846 32.04807692307692  C 0.08653846153846154 31.875  0 31.653846153846153  0 31.384615384615387  C 0 31.115384615384613  0.08653846153846154 30.89423076923077  0.2596153846153846 30.721153846153847  C 0.4326923076923077 30.54807692307692  0.6538461538461539 30.46153846153846  0.9230769230769231 30.46153846153846  L 10.153846153846153 30.46153846153846  C 10.423076923076925 30.46153846153846  10.644230769230768 30.54807692307692  10.817307692307693 30.721153846153847  Z M 45.11538461538461 29.19230769230769  C 46.730769230769226 30.846153846153843  47.53846153846154 32.80769230769231  47.53846153846154 35.07692307692308  C 47.53846153846154 37.38461538461539  46.72115384615385 39.33653846153847  45.08653846153846 40.93269230769231  L 40.84615384615385 45.144230769230774  C 39.25 46.74038461538461  37.29807692307693 47.53846153846154  34.99038461538461 47.53846153846154  C 32.66346153846155 47.53846153846154  30.701923076923084 46.72115384615385  29.10576923076923 45.08653846153846  L 19.471153846153847 35.42307692307692  C 19.067307692307693 35.019230769230774  18.663461538461537 34.480769230769226  18.259615384615387 33.80769230769231  L 25.153846153846153 33.28846153846154  L 33.02884615384615 41.19230769230769  C 33.54807692307693 41.71153846153846  34.20192307692308 41.97596153846154  34.99038461538461 41.98557692307692  C 35.77884615384616 41.99519230769231  36.43269230769231 41.74038461538461  36.95192307692307 41.22115384615385  L 41.19230769230769 37.00961538461539  C 41.73076923076923 36.47115384615384  42 35.82692307692308  42 35.07692307692308  C 42 34.30769230769231  41.73076923076923 33.653846153846146  41.19230769230769 33.11538461538461  L 33.28846153846154 25.18269230769231  L 33.80769230769231 18.28846153846154  C 34.48076923076923 18.69230769230769  35.019230769230774 19.096153846153847  35.42307692307693 19.5  L 45.11538461538461 29.19230769230769  Z M 28.528846153846153 12.576923076923075  C 28.93269230769231 12.98076923076923  29.33653846153846 13.519230769230766  29.740384615384613 14.19230769230769  L 22.846153846153847 14.71153846153846  L 14.971153846153845 6.80769230769231  C 14.432692307692308 6.269230769230768  13.778846153846153 6  13.009615384615385 6  C 12.259615384615385 6  11.605769230769232 6.259615384615385  11.048076923076923 6.778846153846155  L 6.8076923076923075 10.990384615384615  C 6.26923076923077 11.528846153846152  6 12.173076923076925  6 12.923076923076925  C 6 13.692307692307686  6.26923076923077 14.346153846153843  6.8076923076923075 14.884615384615385  L 14.711538461538463 22.78846153846154  L 14.192307692307693 29.71153846153846  C 13.51923076923077 29.30769230769231  12.98076923076923 28.903846153846153  12.576923076923077 28.5  L 2.8846153846153846 18.80769230769231  C 1.2692307692307692 17.153846153846153  0.46153846153846156 15.192307692307686  0.46153846153846156 12.923076923076925  C 0.46153846153846156 10.615384615384615  1.2788461538461537 8.663461538461538  2.9134615384615383 7.06730769230769  L 7.153846153846153 2.85576923076923  C 8.75 1.2596153846153815  10.701923076923077 0.4615384615384599  13.009615384615385 0.4615384615384599  C 15.336538461538463 0.4615384615384599  17.298076923076923 1.2788461538461533  18.89423076923077 2.91346153846154  L 28.528846153846153 12.576923076923075  Z M 47.74038461538461 15.951923076923075  C 47.91346153846154 16.125  48 16.34615384615384  48 16.615384615384613  C 48 16.884615384615383  47.91346153846154 17.10576923076923  47.74038461538461 17.278846153846153  C 47.56730769230769 17.451923076923073  47.34615384615385 17.53846153846154  47.07692307692307 17.53846153846154  L 37.84615384615385 17.53846153846154  C 37.57692307692308 17.53846153846154  37.355769230769226 17.451923076923073  37.18269230769231 17.278846153846153  C 37.00961538461539 17.10576923076923  36.92307692307693 16.884615384615383  36.92307692307693 16.615384615384613  C 36.92307692307693 16.34615384615384  37.00961538461539 16.125  37.18269230769231 15.951923076923075  C 37.355769230769226 15.778846153846155  37.57692307692308 15.69230769230769  37.84615384615385 15.69230769230769  L 47.07692307692307 15.69230769230769  C 47.34615384615385 15.69230769230769  47.56730769230769 15.778846153846155  47.74038461538461 15.951923076923075  Z M 32.04807692307693 0.259615384615385  C 32.22115384615385 0.43269230769231015  32.30769230769231 0.6538461538461515  32.30769230769231 0.9230769230769251  L 32.30769230769231 10.153846153846155  C 32.30769230769231 10.423076923076923  32.22115384615385 10.64423076923077  32.04807692307693 10.81730769230769  C 31.875 10.990384615384615  31.65384615384616 11.076923076923075  31.384615384615387 11.076923076923075  C 31.115384615384617 11.076923076923075  30.89423076923077 10.990384615384615  30.721153846153847 10.81730769230769  C 30.548076923076927 10.64423076923077  30.46153846153846 10.423076923076923  30.46153846153846 10.153846153846155  L 30.46153846153846 0.9230769230769251  C 30.46153846153846 0.6538461538461515  30.548076923076927 0.43269230769231015  30.721153846153847 0.259615384615385  C 30.89423076923077 0.0865384615384599  31.115384615384617 0  31.384615384615387 0  C 31.65384615384616 0  31.875 0.0865384615384599  32.04807692307693 0.259615384615385  Z M 44.30769230769231 4.615384615384615  C 44.30769230769231 4.865384615384611  44.22115384615385 5.086538461538458  44.04807692307693 5.278846153846155  L 36.66346153846154 12.66346153846154  C 36.45192307692308 12.83653846153846  36.230769230769226 12.923076923076925  36 12.923076923076925  C 35.769230769230774 12.923076923076925  35.54807692307693 12.83653846153846  35.33653846153846 12.66346153846154  C 35.16346153846154 12.471153846153843  35.07692307692307 12.249999999999996  35.07692307692307 12  C 35.07692307692307 11.749999999999998  35.16346153846154 11.528846153846152  35.33653846153846 11.33653846153846  L 42.72115384615385 3.951923076923075  C 42.91346153846154 3.778846153846155  43.13461538461539 3.69230769230769  43.38461538461539 3.69230769230769  C 43.63461538461539 3.69230769230769  43.85576923076923 3.778846153846155  44.04807692307693 3.951923076923075  C 44.22115384615385 4.1442307692307665  44.30769230769231 4.365384615384613  44.30769230769231 4.615384615384615  Z " fill-rule="nonzero" fill="rgba(0, 0, 0, 1)" stroke="none" transform="matrix(1 0 0 1 128 97 )" class="fill" />
    <path d="M 12.923076923076923 36  C 12.923076923076923 36.25  12.836538461538463 36.47115384615384  12.663461538461537 36.66346153846154  L 5.278846153846153 44.04807692307693  C 5.067307692307693 44.22115384615385  4.846153846153847 44.30769230769231  4.615384615384616 44.30769230769231  C 4.384615384615384 44.30769230769231  4.163461538461539 44.22115384615385  3.9519230769230766 44.04807692307693  C 3.7788461538461537 43.855769230769226  3.6923076923076925 43.63461538461539  3.6923076923076925 43.38461538461539  C 3.6923076923076925 43.13461538461539  3.7788461538461537 42.91346153846154  3.9519230769230766 42.72115384615385  L 11.336538461538462 35.33653846153846  C 11.528846153846153 35.16346153846154  11.75 35.07692307692308  12 35.07692307692308  C 12.250000000000002 35.07692307692308  12.471153846153848 35.16346153846154  12.663461538461537 35.33653846153846  C 12.836538461538463 35.528846153846146  12.923076923076923 35.75  12.923076923076923 36  Z " stroke-width="0" stroke-dasharray="0" stroke="rgba(255, 255, 255, 0)" fill="none" transform="matrix(1 0 0 1 128 97 )" class="stroke" mask="url(#Clip41)" />
    <path d="M 17.278846153846153 37.18269230769231  C 17.451923076923077 37.355769230769226  17.538461538461537 37.57692307692308  17.538461538461537 37.84615384615385  L 17.538461538461537 47.07692307692307  C 17.538461538461537 47.34615384615384  17.451923076923077 47.56730769230769  17.278846153846153 47.74038461538461  C 17.10576923076923 47.91346153846154  16.884615384615387 48  16.615384615384613 48  C 16.34615384615385 48  16.125 47.91346153846154  15.951923076923077 47.74038461538461  C 15.778846153846155 47.56730769230769  15.692307692307693 47.34615384615384  15.692307692307693 47.07692307692307  L 15.692307692307693 37.84615384615385  C 15.692307692307693 37.57692307692308  15.778846153846155 37.355769230769226  15.951923076923077 37.18269230769231  C 16.125 37.00961538461539  16.34615384615385 36.92307692307692  16.615384615384613 36.92307692307692  C 16.884615384615387 36.92307692307692  17.10576923076923 37.00961538461539  17.278846153846153 37.18269230769231  Z " stroke-width="0" stroke-dasharray="0" stroke="rgba(255, 255, 255, 0)" fill="none" transform="matrix(1 0 0 1 128 97 )" class="stroke" mask="url(#Clip41)" />
    <path d="M 10.817307692307693 30.721153846153847  C 10.990384615384615 30.89423076923077  11.076923076923077 31.115384615384613  11.076923076923077 31.384615384615387  C 11.076923076923077 31.653846153846153  10.990384615384615 31.875  10.817307692307693 32.04807692307692  C 10.644230769230768 32.22115384615385  10.423076923076925 32.30769230769231  10.153846153846153 32.30769230769231  L 0.9230769230769231 32.30769230769231  C 0.6538461538461539 32.30769230769231  0.4326923076923077 32.22115384615385  0.2596153846153846 32.04807692307692  C 0.08653846153846154 31.875  0 31.653846153846153  0 31.384615384615387  C 0 31.115384615384613  0.08653846153846154 30.89423076923077  0.2596153846153846 30.721153846153847  C 0.4326923076923077 30.54807692307692  0.6538461538461539 30.46153846153846  0.9230769230769231 30.46153846153846  L 10.153846153846153 30.46153846153846  C 10.423076923076925 30.46153846153846  10.644230769230768 30.54807692307692  10.817307692307693 30.721153846153847  Z " stroke-width="0" stroke-dasharray="0" stroke="rgba(255, 255, 255, 0)" fill="none" transform="matrix(1 0 0 1 128 97 )" class="stroke" mask="url(#Clip41)" />
    <path d="M 45.11538461538461 29.19230769230769  C 46.730769230769226 30.846153846153843  47.53846153846154 32.80769230769231  47.53846153846154 35.07692307692308  C 47.53846153846154 37.38461538461539  46.72115384615385 39.33653846153847  45.08653846153846 40.93269230769231  L 40.84615384615385 45.144230769230774  C 39.25 46.74038461538461  37.29807692307693 47.53846153846154  34.99038461538461 47.53846153846154  C 32.66346153846155 47.53846153846154  30.701923076923084 46.72115384615385  29.10576923076923 45.08653846153846  L 19.471153846153847 35.42307692307692  C 19.067307692307693 35.019230769230774  18.663461538461537 34.480769230769226  18.259615384615387 33.80769230769231  L 25.153846153846153 33.28846153846154  L 33.02884615384615 41.19230769230769  C 33.54807692307693 41.71153846153846  34.20192307692308 41.97596153846154  34.99038461538461 41.98557692307692  C 35.77884615384616 41.99519230769231  36.43269230769231 41.74038461538461  36.95192307692307 41.22115384615385  L 41.19230769230769 37.00961538461539  C 41.73076923076923 36.47115384615384  42 35.82692307692308  42 35.07692307692308  C 42 34.30769230769231  41.73076923076923 33.653846153846146  41.19230769230769 33.11538461538461  L 33.28846153846154 25.18269230769231  L 33.80769230769231 18.28846153846154  C 34.48076923076923 18.69230769230769  35.019230769230774 19.096153846153847  35.42307692307693 19.5  L 45.11538461538461 29.19230769230769  Z " stroke-width="0" stroke-dasharray="0" stroke="rgba(255, 255, 255, 0)" fill="none" transform="matrix(1 0 0 1 128 97 )" class="stroke" mask="url(#Clip41)" />
    <path d="M 28.528846153846153 12.576923076923075  C 28.93269230769231 12.98076923076923  29.33653846153846 13.519230769230766  29.740384615384613 14.19230769230769  L 22.846153846153847 14.71153846153846  L 14.971153846153845 6.80769230769231  C 14.432692307692308 6.269230769230768  13.778846153846153 6  13.009615384615385 6  C 12.259615384615385 6  11.605769230769232 6.259615384615385  11.048076923076923 6.778846153846155  L 6.8076923076923075 10.990384615384615  C 6.26923076923077 11.528846153846152  6 12.173076923076925  6 12.923076923076925  C 6 13.692307692307686  6.26923076923077 14.346153846153843  6.8076923076923075 14.884615384615385  L 14.711538461538463 22.78846153846154  L 14.192307692307693 29.71153846153846  C 13.51923076923077 29.30769230769231  12.98076923076923 28.903846153846153  12.576923076923077 28.5  L 2.8846153846153846 18.80769230769231  C 1.2692307692307692 17.153846153846153  0.46153846153846156 15.192307692307686  0.46153846153846156 12.923076923076925  C 0.46153846153846156 10.615384615384615  1.2788461538461537 8.663461538461538  2.9134615384615383 7.06730769230769  L 7.153846153846153 2.85576923076923  C 8.75 1.2596153846153815  10.701923076923077 0.4615384615384599  13.009615384615385 0.4615384615384599  C 15.336538461538463 0.4615384615384599  17.298076923076923 1.2788461538461533  18.89423076923077 2.91346153846154  L 28.528846153846153 12.576923076923075  Z " stroke-width="0" stroke-dasharray="0" stroke="rgba(255, 255, 255, 0)" fill="none" transform="matrix(1 0 0 1 128 97 )" class="stroke" mask="url(#Clip41)" />
    <path d="M 47.74038461538461 15.951923076923075  C 47.91346153846154 16.125  48 16.34615384615384  48 16.615384615384613  C 48 16.884615384615383  47.91346153846154 17.10576923076923  47.74038461538461 17.278846153846153  C 47.56730769230769 17.451923076923073  47.34615384615385 17.53846153846154  47.07692307692307 17.53846153846154  L 37.84615384615385 17.53846153846154  C 37.57692307692308 17.53846153846154  37.355769230769226 17.451923076923073  37.18269230769231 17.278846153846153  C 37.00961538461539 17.10576923076923  36.92307692307693 16.884615384615383  36.92307692307693 16.615384615384613  C 36.92307692307693 16.34615384615384  37.00961538461539 16.125  37.18269230769231 15.951923076923075  C 37.355769230769226 15.778846153846155  37.57692307692308 15.69230769230769  37.84615384615385 15.69230769230769  L 47.07692307692307 15.69230769230769  C 47.34615384615385 15.69230769230769  47.56730769230769 15.778846153846155  47.74038461538461 15.951923076923075  Z " stroke-width="0" stroke-dasharray="0" stroke="rgba(255, 255, 255, 0)" fill="none" transform="matrix(1 0 0 1 128 97 )" class="stroke" mask="url(#Clip41)" />
    <path d="M 32.04807692307693 0.259615384615385  C 32.22115384615385 0.43269230769231015  32.30769230769231 0.6538461538461515  32.30769230769231 0.9230769230769251  L 32.30769230769231 10.153846153846155  C 32.30769230769231 10.423076923076923  32.22115384615385 10.64423076923077  32.04807692307693 10.81730769230769  C 31.875 10.990384615384615  31.65384615384616 11.076923076923075  31.384615384615387 11.076923076923075  C 31.115384615384617 11.076923076923075  30.89423076923077 10.990384615384615  30.721153846153847 10.81730769230769  C 30.548076923076927 10.64423076923077  30.46153846153846 10.423076923076923  30.46153846153846 10.153846153846155  L 30.46153846153846 0.9230769230769251  C 30.46153846153846 0.6538461538461515  30.548076923076927 0.43269230769231015  30.721153846153847 0.259615384615385  C 30.89423076923077 0.0865384615384599  31.115384615384617 0  31.384615384615387 0  C 31.65384615384616 0  31.875 0.0865384615384599  32.04807692307693 0.259615384615385  Z " stroke-width="0" stroke-dasharray="0" stroke="rgba(255, 255, 255, 0)" fill="none" transform="matrix(1 0 0 1 128 97 )" class="stroke" mask="url(#Clip41)" />
    <path d="M 44.30769230769231 4.615384615384615  C 44.30769230769231 4.865384615384611  44.22115384615385 5.086538461538458  44.04807692307693 5.278846153846155  L 36.66346153846154 12.66346153846154  C 36.45192307692308 12.83653846153846  36.230769230769226 12.923076923076925  36 12.923076923076925  C 35.769230769230774 12.923076923076925  35.54807692307693 12.83653846153846  35.33653846153846 12.66346153846154  C 35.16346153846154 12.471153846153843  35.07692307692307 12.249999999999996  35.07692307692307 12  C 35.07692307692307 11.749999999999998  35.16346153846154 11.528846153846152  35.33653846153846 11.33653846153846  L 42.72115384615385 3.951923076923075  C 42.91346153846154 3.778846153846155  43.13461538461539 3.69230769230769  43.38461538461539 3.69230769230769  C 43.63461538461539 3.69230769230769  43.85576923076923 3.778846153846155  44.04807692307693 3.951923076923075  C 44.22115384615385 4.1442307692307665  44.30769230769231 4.365384615384613  44.30769230769231 4.615384615384615  Z " stroke-width="0" stroke-dasharray="0" stroke="rgba(255, 255, 255, 0)" fill="none" transform="matrix(1 0 0 1 128 97 )" class="stroke" mask="url(#Clip41)" />
  </g>
</svg>